<?xml version="1.0" encoding="utf-8"?>
<!-- Generator: Adobe Illustrator 16.0.0, SVG Export Plug-In . SVG Version: 6.00 Build 0)  -->
<!DOCTYPE svg PUBLIC "-//W3C//DTD SVG 1.1//EN" "http://www.w3.org/Graphics/SVG/1.1/DTD/svg11.dtd">
<svg version="1.1" id="Layer_1" xmlns="http://www.w3.org/2000/svg" xmlns:xlink="http://www.w3.org/1999/xlink" x="0px" y="0px"
	 width="960px" height="560px" viewBox="0 0 960 560" enable-background="new 0 0 960 560" xml:space="preserve">
<g>
	<g>
		<path fill="#FEFEFE" d="M200,280c0,154.412,125.588,280,280,280s280-125.588,280-280C760,125.588,634.412,0,480,0
			S200,125.588,200,280z M737.354,280c0,141.944-115.409,257.353-257.354,257.353S222.647,421.944,222.647,280
			S338.056,22.647,480,22.647S737.354,138.056,737.354,280z"/>
		<path fill="#FEFEFE" d="M387.01,240.196c-2.173,2.173-3.317,5.146-3.317,8.007c0,2.859,1.145,5.833,3.317,8.006l84.984,84.983
			c2.172,2.174,5.032,3.317,8.006,3.317s5.834-1.144,8.006-3.317l84.984-84.983c4.461-4.461,4.461-11.552,0-16.013
			s-11.553-4.461-16.014,0L480,317.173l-76.978-76.977C398.563,235.85,391.356,235.85,387.01,240.196z"/>
	</g>
</g>
</svg>
